<svg width="22" height="22" viewBox="0 0 22 22" fill="none" xmlns="http://www.w3.org/2000/svg">
<g clip-path="url(#clip0_8_159)">
<path d="M0.916687 6.41666V0.916664H6.41669" stroke="#FFA137" stroke-width="2" stroke-linecap="round" stroke-linejoin="round"/>
<path d="M7.33331 7.33333L0.916647 0.916664" stroke="#FFA137" stroke-width="2" stroke-linecap="round" stroke-linejoin="round"/>
<path d="M0.0647062 16.8071V19.8179C0.0635694 20.0974 0.120936 20.3741 0.233133 20.6302C0.34533 20.8863 0.509883 21.1161 0.716253 21.3051C0.922624 21.4941 1.16626 21.6379 1.43156 21.7275C1.69686 21.817 1.97798 21.8503 2.2569 21.8251C5.35128 21.4895 8.32365 20.4342 10.9352 18.744C13.3649 17.2032 15.4248 15.1473 16.9687 12.7224C18.6682 10.1042 19.7258 7.12332 20.0559 4.02119C20.0811 3.74367 20.048 3.46395 19.9589 3.19987C19.8698 2.93579 19.7265 2.69312 19.5383 2.48731C19.35 2.2815 19.1209 2.11707 18.8655 2.00448C18.6101 1.89189 18.334 1.8336 18.0548 1.83334H15.038C14.55 1.82855 14.0769 2.00102 13.7068 2.31862C13.3368 2.63621 13.0951 3.07725 13.0268 3.55954C12.8995 4.52306 12.6633 5.46912 12.3229 6.37966C12.1876 6.73887 12.1583 7.12926 12.2385 7.50458C12.3187 7.87989 12.5051 8.22439 12.7754 8.49726L14.0525 9.77183C12.621 12.2844 10.5365 14.3648 8.01896 15.7934L6.74185 14.5189C6.46844 14.249 6.12326 14.0631 5.7472 13.983C5.37114 13.903 4.97998 13.9322 4.62005 14.0673C3.7077 14.407 2.75977 14.6427 1.79433 14.7698C1.30584 14.8386 0.859727 15.0841 0.540822 15.4597C0.221916 15.8354 0.0524693 16.3149 0.0647062 16.8071Z" stroke="#FFA137" stroke-width="2" stroke-linecap="round" stroke-linejoin="round"/>
</g>
<defs>
<clipPath id="clip0_8_159">
<rect width="22" height="22" fill="white" transform="matrix(-1 0 0 1 22 0)"/>
</clipPath>
</defs>
</svg>
