<svg width="42" height="42" viewBox="0 0 42 42" fill="none" xmlns="http://www.w3.org/2000/svg">
<g clip-path="url(#clip0_3_29)">
<mask id="mask0_3_29" style="mask-type:alpha" maskUnits="userSpaceOnUse" x="0" y="0" width="42" height="42">
<path d="M42 0H0V42H42V0Z" fill="white"/>
</mask>
<g mask="url(#mask0_3_29)">
<path d="M21 5.39996C16.3608 5.39996 12.6 9.16076 12.6 13.8V14.7249C11.7487 14.8677 11.1 15.6081 11.1 16.5V18.6C11.1 19.5078 11.772 20.2587 12.6457 20.3821C12.9558 23.353 14.8144 25.8632 17.4 27.0916V29.8499H16.8C10.8354 29.8499 6 34.6853 6 40.6499V41.9999H36V40.6499C36 34.6853 31.1646 29.8499 25.2 29.8499H24.6V27.0916C27.1855 25.8632 29.0442 23.353 29.3542 20.3821C30.228 20.2587 30.9 19.5078 30.9 18.6V16.5C30.9 15.6081 30.2512 14.8677 29.4 14.7249V13.8C29.4 9.16076 25.6392 5.39996 21 5.39996Z" fill="#FFDBB4"/>
<path d="M17.4 27.0916V28.2916C18.5249 28.8256 19.7548 29.1017 21 29.1C22.2452 29.1017 23.475 28.8256 24.6 28.2916V27.0916C23.475 27.6256 22.2452 27.9017 21 27.9C19.7548 27.9017 18.5249 27.6256 17.4 27.0916Z" fill="black" fill-opacity="0.1"/>
<path d="M15.102 29.9904C9.94425 30.8049 6 35.2706 6 40.6577V41.9999H36V40.6577C36 35.2706 32.0559 30.8049 26.8978 29.9904C26.7586 30.778 26.3596 31.4963 25.7646 32.0308L21.4018 35.9651C21.2916 36.0646 21.1484 36.1196 21 36.1196C20.8515 36.1196 20.7084 36.0646 20.5981 35.9651L16.2354 32.0308C15.6403 31.4963 15.2414 30.778 15.1021 29.9904H15.102Z" fill="#FFFFB1"/>
<path fill-rule="evenodd" clip-rule="evenodd" d="M18.9 22.35C18.9 23.5098 19.8402 24.45 21 24.45C22.1598 24.45 23.1 23.5098 23.1 22.35" fill="black" fill-opacity="0.7"/>
<path fill-rule="evenodd" clip-rule="evenodd" d="M19.2 19.5C19.2 20.1627 20.006 20.7 21 20.7C21.9941 20.7 22.8 20.1627 22.8 19.5" fill="black" fill-opacity="0.16"/>
<path d="M18 16.7999C18 17.0386 17.9052 17.2675 17.7364 17.4363C17.5676 17.6051 17.3387 17.6999 17.1 17.6999C16.8613 17.6999 16.6324 17.6051 16.4636 17.4363C16.2948 17.2675 16.2 17.0386 16.2 16.7999C16.2 16.5612 16.2948 16.3323 16.4636 16.1635C16.6324 15.9948 16.8613 15.8999 17.1 15.8999C17.3387 15.8999 17.5676 15.9948 17.7364 16.1635C17.9052 16.3323 18 16.5612 18 16.7999ZM25.8 16.7999C25.8 17.0386 25.7052 17.2675 25.5364 17.4363C25.3676 17.6051 25.1387 17.6999 24.9 17.6999C24.6613 17.6999 24.4324 17.6051 24.2636 17.4363C24.0948 17.2675 24 17.0386 24 16.7999C24 16.5612 24.0948 16.3323 24.2636 16.1635C24.4324 15.9948 24.6613 15.8999 24.9 15.8999C25.1387 15.8999 25.3676 15.9948 25.5364 16.1635C25.7052 16.3323 25.8 16.5612 25.8 16.7999Z" fill="black" fill-opacity="0.6"/>
<path fill-rule="evenodd" clip-rule="evenodd" d="M18.0555 13.3314C17.76 13.7671 17.2236 14.0273 16.7448 14.1839C16.1534 14.3774 13.962 14.6909 14.478 15.8861C14.4796 15.8902 14.4824 15.8937 14.4861 15.8962C14.4897 15.8986 14.4939 15.8999 14.4983 15.9C14.5027 15.9 14.507 15.8987 14.5106 15.8963C14.5143 15.8939 14.5171 15.8905 14.5188 15.8864C14.6918 15.4897 17.1386 15.118 17.3648 15.0308C18.0315 14.7745 18.6237 14.2073 18.7391 13.4494C18.7919 13.1019 18.6435 12.5421 18.5069 12.3169C18.4904 12.2899 18.4508 12.2965 18.4424 12.3273C18.3884 12.5269 18.2309 13.0729 18.0554 13.3314H18.0555ZM23.9445 13.3314C24.24 13.7671 24.7764 14.0273 25.2552 14.1839C25.8467 14.3774 28.0379 14.6908 27.522 15.8861C27.5204 15.8902 27.5176 15.8937 27.514 15.8962C27.5103 15.8986 27.5061 15.8999 27.5017 15.9C27.4973 15.9 27.493 15.8987 27.4894 15.8963C27.4857 15.8939 27.4829 15.8905 27.4812 15.8864C27.3083 15.4897 24.8615 15.118 24.6353 15.0308C23.9685 14.7745 23.3763 14.2073 23.261 13.4494C23.2082 13.1019 23.3565 12.5421 23.4932 12.3169C23.5097 12.2899 23.5493 12.2965 23.5577 12.3273C23.6117 12.5269 23.7692 13.0729 23.9447 13.3314H23.9445Z" fill="black" fill-opacity="0.6"/>
<path fill-rule="evenodd" clip-rule="evenodd" d="M26.1463 5.25087C23.1181 3.49587 20.1193 3.78327 17.8555 4.35447C15.5917 4.92567 14.2525 6.54762 13.1035 8.94717C12.5394 10.1254 12.2049 11.5186 12.1534 12.8221C12.1332 13.3339 12.2022 13.8622 12.3402 14.3551C12.3907 14.5359 12.6634 15.163 12.7383 14.6563C12.7632 14.4876 12.672 14.2549 12.6633 14.0757C12.6516 13.8403 12.664 13.6021 12.6801 13.3672C12.7101 12.928 12.7884 12.4972 12.9276 12.0787C13.1268 11.4805 13.3801 10.8319 13.768 10.3272C14.7282 9.07797 16.3903 9.00687 17.7099 8.31957C17.5954 8.53032 17.154 8.87157 17.3068 9.10902C17.4126 9.27312 17.8123 9.22332 18.0033 9.21807C18.5056 9.20427 19.0102 9.11697 19.5064 9.04602C20.2884 8.93427 21.0211 8.70777 21.757 8.43267C22.3594 8.20737 23.0475 7.99887 23.5003 7.52097C24.231 8.27817 25.1715 8.99007 26.1105 9.47142C26.9532 9.90342 28.3123 10.1191 28.8274 10.9951C29.4372 12.0322 29.1567 13.306 29.3428 14.4301C29.4136 14.8576 29.5746 14.848 29.6626 14.4657C29.8122 13.8162 29.8828 13.1415 29.8353 12.4738C29.7276 10.9666 29.1745 7.00587 26.1463 5.25087Z" fill="#2C1B18"/>
</g>
</g>
<defs>
<clipPath id="clip0_3_29">
<rect width="41.7137" height="41.7137" fill="white" transform="scale(1.00686)"/>
</clipPath>
</defs>
</svg>
